<?xml version="1.0" standalone="no"?><!DOCTYPE svg PUBLIC "-//W3C//DTD SVG 1.1//EN" "http://www.w3.org/Graphics/SVG/1.1/DTD/svg11.dtd"><svg t="1712751302740" class="icon" viewBox="0 0 1024 1024" version="1.1" xmlns="http://www.w3.org/2000/svg" p-id="8272" xmlns:xlink="http://www.w3.org/1999/xlink" width="200" height="200"><path d="M42.666667 341.333333a42.666667 42.666667 0 0 1-42.666667-42.666666V170.666667a170.666667 170.666667 0 0 1 170.666667-170.666667h128a42.666667 42.666667 0 0 1 0 85.333333H170.666667a85.333333 85.333333 0 0 0-85.333334 85.333334v128a42.666667 42.666667 0 0 1-42.666666 42.666666zM981.333333 341.333333a42.666667 42.666667 0 0 1-42.666666-42.666666V170.666667a85.333333 85.333333 0 0 0-85.333334-85.333334h-128a42.666667 42.666667 0 0 1 0-85.333333h128a170.666667 170.666667 0 0 1 170.666667 170.666667v128a42.666667 42.666667 0 0 1-42.666667 42.666666zM298.666667 1024H170.666667a170.666667 170.666667 0 0 1-170.666667-170.666667v-128a42.666667 42.666667 0 0 1 85.333333 0v128a85.333333 85.333333 0 0 0 85.333334 85.333334h128a42.666667 42.666667 0 0 1 0 85.333333zM853.333333 1024h-128a42.666667 42.666667 0 0 1 0-85.333333h128a85.333333 85.333333 0 0 0 85.333334-85.333334v-128a42.666667 42.666667 0 0 1 85.333333 0v128a170.666667 170.666667 0 0 1-170.666667 170.666667zM509.013333 768h-14.08a280.32 280.32 0 0 1-187.306666-101.546667 42.666667 42.666667 0 0 1 67.413333-52.48 194.986667 194.986667 0 0 0 128 69.12 203.093333 203.093333 0 0 0 151.466667-72.96 42.666667 42.666667 0 0 1 60.586666 60.586667A290.56 290.56 0 0 1 509.013333 768z" p-id="8273"></path><path d="M256 384a85.333333 64 90 1 0 128 0 85.333333 64 90 1 0-128 0Z" p-id="8274"></path><path d="M640 384a85.333333 64 90 1 0 128 0 85.333333 64 90 1 0-128 0Z" p-id="8275"></path></svg>