<?xml version="1.0" standalone="no"?><!DOCTYPE svg PUBLIC "-//W3C//DTD SVG 1.1//EN" "http://www.w3.org/Graphics/SVG/1.1/DTD/svg11.dtd"><svg t="1713256963948" class="icon" viewBox="0 0 1024 1024" version="1.1" xmlns="http://www.w3.org/2000/svg" p-id="5066" xmlns:xlink="http://www.w3.org/1999/xlink" width="200" height="200"><path d="M128 0h768a128 128 0 0 1 128 128v768a128 128 0 0 1-128 128H128a128 128 0 0 1-128-128V128a128 128 0 0 1 128-128z m334.72 706.368L273.728 519.68a48 48 0 1 0-67.456 68.288l227.2 224.576a48 48 0 0 0 71.488-4.48l372.8-474.368a48 48 0 1 0-75.52-59.264l-339.52 432z" fill="#457EFF" p-id="5067"></path></svg>