<?xml version="1.0" standalone="no"?><!DOCTYPE svg PUBLIC "-//W3C//DTD SVG 1.1//EN" "http://www.w3.org/Graphics/SVG/1.1/DTD/svg11.dtd"><svg t="1713267300665" class="icon" viewBox="0 0 1024 1024" version="1.1" xmlns="http://www.w3.org/2000/svg" p-id="15273" xmlns:xlink="http://www.w3.org/1999/xlink" width="200" height="200"><path d="M871.537778 978.488889H168.391111c-21.617778 0-38.684444-17.066667-38.684444-38.684445V84.195556c0-21.617778 17.066667-38.684444 38.684444-38.684445h703.146667C893.155556 45.511111 910.222222 62.577778 910.222222 84.195556v855.608888c1.137778 21.617778-17.066667 38.684444-38.684444 38.684445zM168.391111 67.128889c-9.102222 0-17.066667 7.964444-17.066667 17.066667v855.608888c0 9.102222 7.964444 17.066667 17.066667 17.066667h703.146667c9.102222 0 17.066667-7.964444 17.066666-17.066667V84.195556c0-9.102222-7.964444-17.066667-17.066666-17.066667H168.391111z" fill="#231815" p-id="15274"></path><path d="M139.946667 258.275556H88.746667c-19.342222 0-35.271111-15.928889-35.271111-35.271112 0-19.342222 15.928889-35.271111 35.271111-35.271111h51.2c5.688889 0 11.377778 4.551111 11.377777 11.377778v48.924445c0 5.688889-4.551111 10.24-11.377777 10.24z m-51.2-48.924445c-6.826667 0-13.653333 5.688889-13.653334 13.653333s5.688889 13.653333 13.653334 13.653334h39.822222v-26.168889H88.746667zM139.946667 523.377778H88.746667c-19.342222 0-35.271111-15.928889-35.271111-35.271111 0-19.342222 15.928889-35.271111 35.271111-35.271111h51.2c5.688889 0 11.377778 4.551111 11.377777 11.377777V512c0 5.688889-4.551111 11.377778-11.377777 11.377778z m-51.2-48.924445c-6.826667 0-13.653333 5.688889-13.653334 13.653334S81.92 500.622222 88.746667 500.622222h39.822222v-26.168889H88.746667zM139.946667 775.964444H88.746667c-19.342222 0-35.271111-15.928889-35.271111-35.271111 0-19.342222 15.928889-35.271111 35.271111-35.271111h51.2c5.688889 0 11.377778 4.551111 11.377777 11.377778v48.924444c0 4.551111-4.551111 10.24-11.377777 10.24z m-51.2-48.924444c-6.826667 0-13.653333 5.688889-13.653334 13.653333s5.688889 13.653333 13.653334 13.653334h39.822222V728.177778H88.746667zM721.351111 233.244444H324.266667c-5.688889 0-11.377778-4.551111-11.377778-11.377777s4.551111-11.377778 11.377778-11.377778h397.084444c5.688889 0 11.377778 4.551111 11.377778 11.377778s-5.688889 11.377778-11.377778 11.377777zM721.351111 498.346667H324.266667c-5.688889 0-11.377778-4.551111-11.377778-11.377778s4.551111-11.377778 11.377778-11.377778h397.084444c5.688889 0 11.377778 4.551111 11.377778 11.377778s-5.688889 11.377778-11.377778 11.377778zM721.351111 750.933333H324.266667c-5.688889 0-11.377778-4.551111-11.377778-11.377777s4.551111-11.377778 11.377778-11.377778h397.084444c5.688889 0 11.377778 4.551111 11.377778 11.377778s-5.688889 11.377778-11.377778 11.377777z" fill="#231815" p-id="15275"></path></svg>